<!DOCTYPE svg PUBLIC "-//W3C//DTD SVG 20010904//EN" "http://www.w3.org/TR/2001/REC-SVG-20010904/DTD/svg10.dtd">
<svg version="1.0" xmlns="http://www.w3.org/2000/svg" width="1200px" height="1170px" viewBox="0 0 12000 11700" preserveAspectRatio="xMidYMid meet">
<g id="layer101" fill="#031bbb" stroke="none">
</g>
<g id="layer102" fill="#031bbb" stroke="none">
<path d="M3109 5853 c-154 -353 -297 -570 -545 -829 -77 -80 -178 -161 -246 -196 -50 -25 -75 -32 -123 -32 -79 -1 -91 7 -305 200 -42 38 -61 55 -135 118 -16 15 -48 39 -70 54 -22 15 -42 29 -45 33 -17 18 -184 110 -270 147 -153 67 -198 77 -345 77 -151 0 -212 -11 -380 -67 -135 -45 -221 -93 -296 -168 -76 -75 -89 -111 -89 -253 0 -237 100 -697 192 -880 39 -78 86 -205 101 -277 18 -79 30 -203 47 -485 12 -192 33 -353 56 -433 9 -30 45 -115 81 -191 99 -207 142 -314 149 -365 9 -61 -22 -120 -138 -268 -176 -224 -238 -327 -275 -460 -25 -89 -24 -436 1 -593 49 -305 144 -497 253 -512 76 -10 116 50 258 382 208 489 360 730 472 751 43 8 78 -15 110 -71 23 -42 25 -59 43 -366 10 -189 24 -264 61 -347 80 -178 239 -461 302 -538 94 -113 198 54 382 611 90 275 89 270 90 580 l0 270 28 57 c51 104 42 100 667 303 490 159 691 288 1369 879 393 343 478 411 582 468 68 38 190 77 271 88 40 6 318 13 618 16 l545 7 645 -215 c355 -119 740 -246 855 -282 116 -37 221 -71 235 -76 14 -5 59 -18 100 -30 41 -12 86 -25 100 -30 81 -28 412 -110 590 -146 116 -23 323 -23 410 0 98 26 273 93 444 171 53 23 137 60 241 105 55 24 123 58 150 75 299 189 669 755 749 1147 37 182 7 704 -69 1163 -8 50 -21 131 -29 180 -8 50 -22 126 -31 170 -10 44 -19 92 -22 108 l-5 27 -3873 0 -3872 0 -34 -77z"/>
</g>
<g id="layer103" fill="#ff0000" stroke="none">
<path d="M9473 11579 c-132 -17 -294 -122 -329 -214 -16 -42 -16 -48 0 -89 23 -59 105 -155 346 -404 113 -117 208 -223 212 -237 3 -14 12 -94 18 -178 20 -259 35 -332 127 -607 l56 -165 -7 -350 c-3 -192 -9 -471 -12 -620 l-6 -270 -169 -340 c-232 -469 -312 -600 -391 -641 -44 -23 -77 -17 -114 20 -49 49 -46 87 22 281 147 422 158 469 135 561 -7 25 -28 72 -48 103 -34 53 -551 579 -706 717 l-67 60 -6 290 c-5 319 -13 387 -51 448 -26 42 -101 133 -161 196 -19 19 -59 66 -90 105 -31 38 -59 72 -63 75 -3 3 -30 41 -60 85 -30 44 -57 82 -60 85 -3 3 -70 113 -149 245 -79 131 -147 244 -151 250 -116 148 -124 153 -279 177 -206 31 -418 18 -563 -34 -186 -67 -225 -199 -113 -383 38 -62 205 -298 396 -560 431 -589 569 -795 623 -933 10 -24 22 -74 27 -113 6 -38 38 -154 71 -257 34 -103 63 -212 66 -242 12 -127 -93 -395 -358 -918 -171 -337 -219 -394 -357 -422 -93 -19 -326 -1 -582 45 -152 28 -263 45 -380 60 -108 14 -195 23 -587 60 -209 19 -417 43 -473 54 -33 7 -53 19 -78 48 -82 96 -260 431 -327 618 -10 28 -22 55 -26 60 -3 6 -10 26 -14 45 -4 19 -11 41 -16 50 -15 26 -66 241 -85 355 -12 79 -18 171 -18 325 -1 214 -1 216 32 335 29 105 75 257 102 335 5 14 23 72 40 130 49 164 92 215 316 374 176 124 183 149 77 291 -37 50 -70 92 -74 95 -3 3 -37 41 -74 85 -99 117 -227 256 -340 370 -125 124 -150 145 -175 145 -10 0 -60 -24 -109 -54 -100 -61 -156 -82 -195 -72 -33 8 -44 29 -56 108 -34 227 -43 254 -88 264 -15 3 -43 10 -62 16 -50 14 -728 22 -900 10 -80 -5 -157 -15 -172 -22 -16 -8 -37 -32 -50 -58 -19 -41 -20 -51 -10 -99 21 -103 147 -326 370 -657 186 -275 188 -280 222 -491 54 -334 78 -440 153 -665 18 -54 13 -878 -7 -1155 -25 -346 -10 -273 -329 -1535 -19 -74 -44 -180 -56 -235 -13 -55 -27 -113 -31 -130 -5 -16 -12 -57 -16 -91 l-6 -61 198 -6 c110 -4 1808 -10 3775 -14 l3575 -6 19 69 c62 236 154 422 347 707 139 204 324 411 415 463 65 37 82 53 104 96 57 112 78 268 61 446 -15 153 -63 305 -107 342 -15 13 -19 12 -34 -7 -10 -11 -30 -56 -45 -100 -16 -43 -66 -154 -112 -248 -77 -157 -85 -178 -99 -275 -9 -58 -23 -127 -32 -155 -33 -106 -144 -248 -367 -471 -172 -173 -215 -198 -263 -156 -51 44 -58 76 -57 247 3 272 42 509 161 975 36 140 72 284 80 320 8 36 22 92 29 125 35 146 46 241 41 355 -5 128 -18 172 -85 282 -22 35 -47 89 -55 119 -19 65 -43 360 -52 629 -3 107 -10 308 -16 445 l-11 250 -118 195 c-100 167 -182 299 -232 374 -60 89 -139 184 -182 216 -127 95 -439 144 -703 109z"/>
</g>
<g id="layer104" fill="#ffffff" stroke="none">
<path d="M3660 5512 c5 -15 43 -131 84 -258 42 -127 76 -238 76 -247 0 -9 -96 -85 -224 -179 l-225 -163 283 -3 282 -2 83 -258 c45 -141 85 -264 88 -272 3 -8 46 108 95 257 l89 273 283 2 283 3 -220 160 c-120 88 -223 162 -228 165 -7 5 151 515 169 544 8 14 -6 4 -240 -166 -119 -87 -219 -158 -223 -158 -4 0 -76 51 -162 113 -313 227 -303 220 -293 189z"/>
<path d="M5600 5534 c0 -4 27 -88 59 -188 122 -371 116 -348 95 -363 -11 -8 -113 -82 -228 -166 l-209 -152 283 -5 282 -5 18 -50 c10 -27 49 -144 86 -260 62 -196 84 -250 84 -215 0 8 38 130 83 270 l83 255 284 5 284 5 -227 165 c-125 90 -227 168 -227 171 0 4 38 123 84 265 47 142 83 260 81 262 -2 2 -101 -66 -219 -152 -118 -86 -221 -159 -229 -162 -7 -2 -65 33 -128 79 -284 208 -339 247 -339 241z"/>
<path d="M7560 5512 c5 -15 43 -131 84 -258 42 -127 76 -238 76 -247 0 -9 -96 -85 -224 -179 l-225 -163 283 -3 282 -2 83 -258 c45 -141 85 -264 88 -272 3 -8 46 108 95 257 l89 273 283 2 283 3 -219 160 c-121 88 -224 162 -229 165 -7 5 151 515 169 544 8 14 -6 4 -240 -166 -119 -87 -219 -158 -223 -158 -4 0 -76 51 -162 113 -313 227 -303 220 -293 189z"/>
<path d="M9465 5498 c7 -24 45 -140 84 -259 39 -118 71 -223 71 -232 0 -9 -92 -83 -224 -179 l-225 -163 283 -3 282 -2 26 -78 c14 -42 54 -164 89 -271 62 -191 62 -193 75 -160 7 19 47 141 89 272 l76 237 286 0 286 0 -44 33 c-24 19 -127 94 -229 167 -102 73 -186 134 -188 135 -1 1 6 27 17 56 40 111 152 471 148 475 -2 3 -104 -67 -225 -156 -121 -88 -223 -160 -226 -160 -6 0 -181 124 -405 288 l-59 43 13 -43z"/>
</g>


</svg>