<!DOCTYPE svg PUBLIC "-//W3C//DTD SVG 20010904//EN" "http://www.w3.org/TR/2001/REC-SVG-20010904/DTD/svg10.dtd">
<svg version="1.0" xmlns="http://www.w3.org/2000/svg" width="1200px" height="1200px" viewBox="0 0 12000 12000" preserveAspectRatio="xMidYMid meet">
<g id="layer101" fill="#00aef3" stroke="none">
 <path d="M5615 11940 c-82 -5 -184 -13 -225 -19 -41 -6 -102 -13 -135 -16 -88 -9 -330 -49 -455 -75 -1424 -300 -2682 -1102 -3550 -2265 -772 -1035 -1180 -2264 -1180 -3555 0 -1294 406 -2516 1181 -3556 713 -957 1720 -1691 2844 -2072 467 -159 917 -252 1431 -297 232 -20 749 -20 982 0 1468 129 2785 759 3803 1820 772 804 1308 1829 1527 2920 84 417 116 744 116 1180 0 589 -74 1114 -239 1680 -29 100 -111 349 -125 380 -5 11 -30 74 -56 140 -25 66 -62 153 -80 193 -19 41 -34 76 -34 79 0 9 -180 363 -205 403 -14 22 -25 42 -25 46 0 7 -87 151 -171 284 -366 577 -879 1130 -1436 1548 -130 98 -446 311 -526 356 -26 14 -58 32 -70 40 -92 61 -570 297 -702 347 -27 11 -59 24 -70 29 -33 16 -179 70 -188 70 -5 0 -23 6 -40 14 -43 18 -107 40 -197 66 -41 12 -86 25 -100 30 -72 24 -328 91 -420 109 -170 34 -224 44 -305 57 -117 18 -314 43 -440 55 -143 13 -732 19 -910 9z"/>
 </g>
<g id="layer102" fill="#ffffff" stroke="none">
 <path d="M5690 11354 c-742 -51 -1419 -233 -2061 -553 -1360 -679 -2368 -1899 -2774 -3361 -212 -760 -250 -1585 -110 -2377 163 -926 584 -1812 1205 -2538 140 -163 456 -477 615 -608 540 -450 1107 -768 1750 -982 608 -202 1156 -285 1810 -272 380 8 648 37 987 107 1058 221 2063 784 2789 1562 823 883 1294 1903 1436 3113 14 119 18 233 18 555 0 413 -5 498 -46 780 -198 1371 -915 2600 -2024 3465 -137 108 -471 330 -630 421 -406 230 -882 421 -1335 534 -446 111 -760 150 -1240 155 -184 1 -360 1 -390 -1z m2681 -1993 c106 -34 140 -74 331 -391 l75 -125 12 -320 c7 -176 17 -356 22 -400 10 -81 14 -91 65 -180 28 -48 29 -55 28 -165 -1 -107 -6 -133 -67 -375 -101 -400 -121 -520 -115 -679 3 -100 19 -136 60 -136 37 0 289 264 333 351 9 16 20 63 25 105 7 55 20 96 47 148 20 39 53 112 73 161 45 111 64 118 97 35 67 -170 41 -421 -49 -468 -60 -31 -186 -171 -278 -308 -103 -155 -154 -256 -184 -366 l-22 -79 -2035 0 c-1118 1 -2139 4 -2268 8 l-233 6 6 54 c4 30 58 258 121 507 70 280 118 489 125 551 6 55 14 255 17 445 5 329 4 348 -15 405 -32 93 -49 169 -72 310 -11 72 -25 145 -31 164 -7 19 -65 115 -131 214 -129 197 -208 343 -208 387 0 16 11 41 23 56 23 27 26 27 188 36 226 12 500 -1 534 -26 10 -7 21 -44 31 -106 8 -51 18 -98 21 -103 10 -17 81 0 125 31 73 50 79 49 146 -13 144 -133 372 -408 372 -449 0 -25 -41 -67 -113 -116 -74 -49 -116 -89 -137 -129 -10 -20 -44 -119 -76 -221 l-58 -185 1 -150 c0 -169 21 -291 74 -442 59 -167 174 -389 227 -437 20 -18 63 -23 537 -71 88 -9 241 -29 340 -46 216 -37 372 -43 422 -16 18 9 45 36 61 60 41 59 205 389 259 521 63 153 65 192 18 331 -20 61 -41 136 -46 169 -17 102 -70 188 -371 601 -273 375 -298 416 -298 486 0 98 181 160 409 138 157 -15 153 -11 299 -257 106 -177 173 -270 273 -379 107 -117 103 -107 107 -336 l4 -198 225 -222 c124 -122 236 -241 250 -265 37 -63 30 -141 -30 -304 -69 -189 -74 -210 -54 -242 12 -18 26 -26 46 -26 51 0 100 71 235 339 l124 246 10 369 9 369 -43 131 c-46 142 -59 208 -70 360 l-7 99 -156 161 c-86 89 -165 178 -174 199 -29 61 -1 115 84 162 75 41 98 44 249 41 105 -2 150 -8 201 -25z m532 -3461 c59 -302 82 -506 82 -720 l-1 -185 -37 -99 c-90 -243 -297 -525 -435 -595 -88 -44 -393 -171 -461 -192 -186 -56 -413 -3 -1396 327 l-409 137 -326 -6 c-358 -7 -420 -15 -518 -67 -57 -30 -106 -70 -419 -341 -354 -307 -470 -375 -835 -493 -128 -42 -248 -85 -266 -96 -57 -35 -65 -71 -66 -275 l-1 -180 -57 -165 c-93 -272 -144 -370 -194 -370 -27 0 -74 65 -157 220 -82 153 -89 177 -97 355 -8 169 -19 213 -60 235 -65 35 -170 -118 -313 -455 -98 -231 -125 -259 -198 -198 -62 53 -102 178 -119 378 -14 152 -3 260 34 339 12 28 66 108 119 178 52 70 99 137 102 149 10 30 0 60 -70 210 -76 163 -90 226 -105 467 -14 219 -23 267 -70 372 -70 158 -117 346 -127 511 -8 128 -1 159 47 208 100 102 354 172 503 137 137 -32 276 -111 419 -240 104 -92 165 -136 192 -136 12 0 44 11 72 25 137 68 323 296 436 532 l58 123 2323 2 c1277 2 2325 1 2328 -2 3 -3 13 -43 22 -90z"/>
 <path d="M8020 5753 c0 -4 23 -76 51 -160 36 -109 48 -157 41 -166 -6 -7 -67 -53 -135 -102 l-125 -90 168 -3 168 -2 55 -163 54 -162 53 162 52 163 169 2 170 3 -112 80 c-62 44 -123 89 -136 100 l-24 20 50 155 c28 85 49 155 47 157 -1 2 -63 -40 -136 -93 l-133 -96 -61 43 c-33 23 -96 69 -138 101 -43 31 -78 54 -78 51z"/>
 <path d="M4542 5738 c53 -142 98 -301 90 -311 -6 -7 -67 -53 -135 -102 l-125 -90 169 -3 168 -2 51 -158 c28 -86 53 -158 55 -160 2 -2 27 68 55 157 l51 161 170 2 170 3 -131 94 c-71 51 -132 97 -135 101 -2 4 18 77 45 161 27 84 47 155 46 157 -2 2 -63 -40 -135 -92 -72 -53 -133 -96 -135 -96 -3 0 -64 43 -136 95 -72 52 -133 95 -136 95 -4 0 -4 -6 -2 -12z"/>
 <path d="M5712 5739 c3 -8 24 -74 47 -146 23 -73 44 -139 47 -147 4 -9 -39 -46 -130 -113 l-136 -98 168 -3 169 -2 53 -163 53 -162 54 162 55 163 168 2 168 3 -134 95 c-121 85 -134 98 -129 120 2 14 24 87 49 163 24 75 42 137 39 137 -3 0 -60 -40 -127 -88 -66 -49 -126 -92 -133 -96 -7 -4 -63 30 -135 82 -148 107 -153 110 -146 91z"/>
 <path d="M6882 5738 c53 -142 98 -301 90 -311 -6 -7 -67 -53 -135 -102 l-125 -90 169 -3 168 -2 51 -158 c28 -86 53 -158 55 -160 2 -2 27 68 55 157 l51 161 170 2 170 3 -131 94 c-71 51 -132 97 -135 101 -2 4 18 77 45 161 27 84 47 155 46 157 -2 2 -63 -40 -135 -92 -72 -53 -133 -96 -135 -96 -3 0 -64 43 -136 95 -72 52 -133 95 -136 95 -4 0 -4 -6 -2 -12z"/>
 </g>

</svg>